#!OML:ASF E:\Steps\Project 1\Capture day 1\Session 2\Subject.ASF
:FULLY-SPECIFIED
:DEGREES
120
root -6.65679 16.1596 35.2319 -152.994 -2.62885 -181.785
lowerback -29.9581 -2.41409 -5.64754
upperback -0.431075 -1.76384 0.0759701
thorax 15.4833 -1.41347 2.3838
lowerneck 9.40477 -2.84998 -8.02587
upperneck 14.8449 -3.30661 5.7483
head 3.16559 -1.25143 3.12053
rclavicle -1.02374e-014 1.39149e-015
rhumerus -39.318 -28.0821 -72.9609
rradius 24.1801
rwrist 5.15643
rhand 17.3655 -14.2227
rfingers 7.12502
rthumb 42.0734 -38.7881
lclavicle -1.02374e-014 1.39149e-015
lhumerus -30.0921 8.41532 78.9281
lradius 18.9408
lwrist -7.92271
lhand -19.231 -10.9054
lfingers 7.12502
lthumb 7.0822 18.9561
rfemur -23.8294 9.08088 19.0572
rtibia 11.0588
rfoot -23.1875 -6.76295
rtoes -17.2016
lfemur -25.2683 -8.56436 -18.7807
ltibia 14.2253
lfoot -13.6121 6.99104
ltoes -50.6426
121
root -6.63534 16.1561 35.2092 -152.989 -2.40127 -181.807
lowerback -29.8864 -2.35178 -5.64397
upperback -0.461689 -1.68445 0.0176018
thorax 15.4045 -1.37611 2.35235
lowerneck 9.56962 -3.13956 -7.99422
upperneck 14.5431 -3.72246 5.57069
head 3.07588 -1.47821 3.05724
rclavicle -4.47266e-016 -2.5842e-015
rhumerus -39.5551 -28.1847 -72.822
rradius 24.0074
rwrist 4.99963
rhand 17.6014 -14.0889
rfingers 7.12502
rthumb 42.2944 -38.5795
lclavicle -4.47266e-016 -2.5842e-015
lhumerus -30.232 7.86944 79.0136
lradius 19.4217
lwrist -7.36594
lhand -20.1751 -12.7829
lfingers 7.12502
lthumb 6.17079 17.1072
rfemur -23.7788 8.84951 19.1323
rtibia 11.0564
rfoot -23.1959 -6.30628
rtoes -17.5549
lfemur -25.5421 -8.79372 -18.7133
ltibia 15.0183
lfoot -13.9817 7.41778
ltoes -50.2322
122
root -6.61571 16.1525 35.1924 -152.922 -2.22756 -181.817
lowerback -29.9139 -2.36174 -5.57544
upperback -0.397136 -1.70718 -0.00155168
thorax 15.4938 -1.38019 2.28407
lowerneck 9.88906 -3.07823 -8.39243
upperneck 14.6943 -3.69358 6.05711
head 3.08404 -1.45924 3.28031
rclavicle 3.8763e-015 1.35174e-014
rhumerus -39.364 -28.2377 -72.8467
rradius 23.6807
rwrist 5.13334
rhand 17.567 -13.7797
rfingers 7.12502
rthumb 42.2622 -38.2813
lclavicle 3.8763e-015 1.35174e-014
lhumerus -30.1546 7.6947 79.0002
lradius 19.8851
lwrist -6.93402
lhand -20.7374 -13.1458
lfingers 7.12502
lthumb 5.62789 16.7594
rfemur -23.9672 9.72535 19.0417
rtibia 11.4433
rfoot -23.3141 -6.99395
rtoes -18.0086
lfemur -26.0231 -8.81516 -18.6635
ltibia 15.9991
lfoot -14.5071 7.48869
ltoes -48.9586
123
root -6.59083 16.1495 35.1801 -152.848 -2.13888 -181.879
lowerback -29.7844 -2.51215 -5.60844
upperback -0.431615 -1.91573 0.0794797
thorax 15.4152 -1.47555 2.30926
lowerneck 9.78338 -3.09452 -8.93975
upperneck 14.9171 -3.761 6.2589
head 3.18824 -1.51251 3.4333
rclavicle -7.40473e-015 3.18055e-015
rhumerus -39.2205 -28.0168 -72.7745
rradius 23.2994
rwrist 5.27649
rhand 17.5059 -13.8011
rfingers 7.12502
rthumb 42.205 -38.3221
lclavicle -7.40473e-015 3.18055e-015
lhumerus -30.2658 8.17416 78.8534
lradius 20.2799
lwrist -6.91321
lhand -20.0691 -14.2437
lfingers 7.12502
lthumb 6.27315 15.6434
rfemur -24.1365 10.723 18.9196
rtibia 11.7683
rfoot -23.4861 -7.64429
rtoes -16.3485
lfemur -26.6145 -8.67848 -18.6686
ltibia 17.1942
lfoot -15.0525 7.14714
ltoes -47.4358
124
root -6.5712 16.1452 35.1588 -152.882 -1.99407 -181.937
lowerback -29.6585 -2.44159 -5.55651
upperback -0.416185 -1.82785 -0.0341298
thorax 15.362 -1.42712 2.1964
lowerneck 9.96144 -3.23116 -8.81271
upperneck 14.6758 -3.96191 6.1999
head 3.09937 -1.61807 3.39324
rclavicle 3.52843e-015 -5.96354e-016
rhumerus -39.4002 -28.2866 -72.6023
rradius 23.0645
rwrist 5.16946
rhand 17.7943 -13.7315
rfingers 7.12502
rthumb 42.475 -38.1604
lclavicle 3.52843e-015 -5.96354e-016
lhumerus -30.2276 8.08351 78.6922
lradius 20.52
lwrist -6.80274
lhand -20.0091 -14.5148
lfingers 7.12502
lthumb 6.33102 15.3705
rfemur -23.9702 11.3254 18.8068
rtibia 11.6936
rfoot -23.3826 -7.97406
rtoes -16.5969
lfemur -27.0599 -8.87276 -18.6513
ltibia 18.3515
lfoot -15.2557 7.37279
ltoes -47.3845
125
root -6.54938 16.1386 35.1372 -152.88 -1.86774 -181.992
lowerback -29.5932 -2.4874 -5.70152
upperback -0.371028 -1.84474 0.0531519
thorax 15.3935 -1.44584 2.36599
lowerneck 10.1439 -2.97112 -9.04691
upperneck 14.9221 -3.6296 6.62337
head 3.1288 -1.43472 3.57138
rclavicle 4.72114e-015 -2.36554e-014
rhumerus -39.4485 -28.0943 -72.464
rradius 23.0573
rwrist 4.76153
rhand 18.1124 -13.7903
rfingers 7.12502
rthumb 42.7727 -38.1161
lclavicle 4.72114e-015 -2.36554e-014
lhumerus -30.0984 8.24724 78.7337
lradius 20.6684
lwrist -6.65477
lhand -19.8714 -14.2418
lfingers 7.12502
lthumb 6.46401 15.6395
rfemur -23.771 9.29378 19.1993
rtibia 11.2948
rfoot -23.1108 -5.91749
rtoes -16.6624
lfemur -27.5889 -9.02236 -18.6227
ltibia 19.5398
lfoot -15.3074 7.77829
ltoes -48.2132
126
root -6.52462 16.1326 35.1141 -152.946 -1.74544 -182.047
lowerback -29.5468 -2.48022 -5.53834
upperback -0.270777 -1.85457 -0.111051
thorax 15.4814 -1.43081 2.0946
lowerneck 9.77389 -3.91701 -8.86694
upperneck 16.7947 -4.91579 8.80305
head 3.87998 -1.89624 4.23365
rclavicle -1.12313e-014 -2.78299e-015
rhumerus -39.4838 -28.1484 -72.6708
rradius 23.0726
rwrist 4.68637
rhand 18.3488 -13.8285
rfingers 7.12502
rthumb 42.9939 -38.0766
lclavicle -1.12313e-014 -2.78299e-015
lhumerus -29.935 8.15993 78.4265
lradius 20.8468
lwrist -6.36847
lhand -20.2741 -13.5864
lfingers 7.12502
lthumb 6.07516 16.3065
rfemur -23.5939 8.51475 19.398
rtibia 11.1614
rfoot -23 -5.07576
rtoes -16.6109
lfemur -28.0783 -8.71318 -18.6979
ltibia 20.8234
lfoot -15.4129 7.8155
ltoes -49.0696
127
root -6.50288 16.1282 35.094 -152.92 -1.62514 -182.068
lowerback -29.4034 -2.3924 -5.4824
upperback -0.321614 -1.75928 -0.211522
thorax 15.3416 -1.38027 1.99745
lowerneck 7.43963 -3.54131 -5.816
upperneck 17.2537 -3.98277 6.40973
head 4.20723 -1.33619 2.94759
rclavicle -1.2424e-015 4.77083e-015
rhumerus -39.7955 -28.3474 -72.5174
rradius 23.1187
rwrist 4.6827
rhand 18.5458 -13.7938
rfingers 7.12502
rthumb 43.1781 -37.9765
lclavicle -1.2424e-015 4.77083e-015
lhumerus -29.9123 8.02777 78.2443
lradius 21.0288
lwrist -6.28604
lhand -20.824 -13.0679
lfingers 7.12502
lthumb 5.54433 16.8396
rfemur -23.5586 8.59172 19.409
rtibia 11.034
rfoot -22.9626 -4.86133
rtoes -15.8208
lfemur -28.7357 -9.12505 -18.5688
ltibia 22.1948
lfoot -15.5419 8.36963
ltoes -49.2622
128
root -6.484 16.1219 35.0824 -152.672 -1.64461 -182.065
lowerback -29.5077 -2.35914 -5.34164
upperback -0.361138 -1.76039 -0.261687
thorax 15.3386 -1.37181 1.8624
lowerneck 7.64234 -3.4869 -5.74048
upperneck 17.3431 -3.89492 6.55075
head 4.19656 -1.26996 2.98537
rclavicle -1.34677e-014 -7.15625e-015
rhumerus -39.9934 -28.4704 -72.4351
rradius 23.2226
rwrist 4.81027
rhand 18.48 -13.5643
rfingers 7.12502
rthumb 43.1166 -37.7689
lclavicle -1.34677e-014 -7.15625e-015
lhumerus -29.7701 8.14741 78.1071
lradius 21.1333
lwrist -6.15179
lhand -20.7693 -12.7956
lfingers 7.12502
lthumb 5.5971 17.1104
rfemur -23.8347 8.58112 19.5401
rtibia 11.3137
rfoot -23.1544 -5.04512
rtoes -17.0251
lfemur -29.8574 -9.27831 -18.4019
ltibia 23.9666
lfoot -15.7637 8.38966
ltoes -49.0264
